<svg width="19" height="23" viewBox="0 0 19 23" fill="none" xmlns="http://www.w3.org/2000/svg">
<path d="M18.4885 15.6655C18.4074 15.5679 18.3279 15.4702 18.2497 15.376C17.1755 14.0767 16.5256 13.2925 16.5256 9.61426C16.5256 7.70996 16.07 6.14746 15.1721 4.97559C14.51 4.10986 13.615 3.45312 12.4353 2.96777C12.4201 2.95933 12.4065 2.94825 12.3952 2.93506C11.9709 1.51416 10.8098 0.5625 9.50022 0.5625C8.19065 0.5625 7.03 1.51416 6.60569 2.93359C6.59436 2.9463 6.58099 2.95703 6.56613 2.96533C3.8132 4.09863 2.47531 6.27295 2.47531 9.61279C2.47531 13.2925 1.82639 14.0767 0.751193 15.3745C0.673068 15.4688 0.593478 15.5645 0.512424 15.6641C0.303049 15.9166 0.170393 16.2238 0.130155 16.5493C0.0899167 16.8748 0.143781 17.2051 0.285373 17.501C0.586642 18.1357 1.22873 18.5298 1.96164 18.5298H17.0442C17.7737 18.5298 18.4113 18.1362 18.7136 17.5044C18.8558 17.2084 18.9102 16.8779 18.8703 16.552C18.8304 16.2261 18.6979 15.9184 18.4885 15.6655ZM9.50022 22.4375C10.2058 22.4369 10.8981 22.2454 11.5036 21.8832C12.1092 21.5211 12.6054 21.0017 12.9397 20.3804C12.9554 20.3506 12.9632 20.3172 12.9622 20.2836C12.9613 20.2499 12.9517 20.217 12.9343 20.1882C12.9169 20.1594 12.8923 20.1355 12.863 20.1189C12.8336 20.1024 12.8005 20.0937 12.7668 20.0938H6.23459C6.20086 20.0936 6.16768 20.1022 6.13827 20.1188C6.10886 20.1353 6.08423 20.1591 6.06678 20.188C6.04933 20.2168 6.03964 20.2497 6.03867 20.2835C6.0377 20.3172 6.04548 20.3506 6.06125 20.3804C6.3955 21.0017 6.89165 21.5209 7.4971 21.8831C8.10254 22.2453 8.79471 22.4368 9.50022 22.4375Z" fill="white"/>
</svg>
