<svg width="33" height="33" viewBox="0 0 33 33" fill="none" xmlns="http://www.w3.org/2000/svg">
<g filter="url(#filter0_d_85_494)">
<path d="M25.4885 16.6655C25.4074 16.5679 25.3279 16.4702 25.2497 16.376C24.1755 15.0767 23.5256 14.2925 23.5256 10.6143C23.5256 8.70996 23.07 7.14746 22.1721 5.97559C21.51 5.10986 20.615 4.45312 19.4353 3.96777C19.4201 3.95933 19.4065 3.94825 19.3952 3.93506C18.9709 2.51416 17.8098 1.5625 16.5002 1.5625C15.1906 1.5625 14.03 2.51416 13.6057 3.93359C13.5944 3.9463 13.581 3.95703 13.5661 3.96533C10.8132 5.09863 9.47531 7.27295 9.47531 10.6128C9.47531 14.2925 8.82639 15.0767 7.75119 16.3745C7.67307 16.4688 7.59348 16.5645 7.51242 16.6641C7.30305 16.9166 7.17039 17.2238 7.13015 17.5493C7.08992 17.8748 7.14378 18.2051 7.28537 18.501C7.58664 19.1357 8.22873 19.5298 8.96164 19.5298H24.0442C24.7737 19.5298 25.4113 19.1362 25.7136 18.5044C25.8558 18.2084 25.9102 17.8779 25.8703 17.552C25.8304 17.2261 25.6979 16.9184 25.4885 16.6655ZM16.5002 23.4375C17.2058 23.4369 17.8981 23.2454 18.5036 22.8832C19.1092 22.5211 19.6054 22.0017 19.9397 21.3804C19.9554 21.3506 19.9632 21.3172 19.9622 21.2836C19.9613 21.2499 19.9517 21.217 19.9343 21.1882C19.9169 21.1594 19.8923 21.1355 19.863 21.1189C19.8336 21.1024 19.8005 21.0937 19.7668 21.0938H13.2346C13.2009 21.0936 13.1677 21.1022 13.1383 21.1188C13.1089 21.1353 13.0842 21.1591 13.0668 21.188C13.0493 21.2168 13.0396 21.2497 13.0387 21.2835C13.0377 21.3172 13.0455 21.3506 13.0613 21.3804C13.3955 22.0017 13.8916 22.5209 14.4971 22.8831C15.1025 23.2453 15.7947 23.4368 16.5002 23.4375Z" fill="white"/>
</g>
<defs>
<filter id="filter0_d_85_494" x="0" y="0" width="33" height="33" filterUnits="userSpaceOnUse" color-interpolation-filters="sRGB">
<feFlood flood-opacity="0" result="BackgroundImageFix"/>
<feColorMatrix in="SourceAlpha" type="matrix" values="0 0 0 0 0 0 0 0 0 0 0 0 0 0 0 0 0 0 127 0" result="hardAlpha"/>
<feOffset dy="4"/>
<feGaussianBlur stdDeviation="2"/>
<feComposite in2="hardAlpha" operator="out"/>
<feColorMatrix type="matrix" values="0 0 0 0 0 0 0 0 0 0 0 0 0 0 0 0 0 0 0.25 0"/>
<feBlend mode="normal" in2="BackgroundImageFix" result="effect1_dropShadow_85_494"/>
<feBlend mode="normal" in="SourceGraphic" in2="effect1_dropShadow_85_494" result="shape"/>
</filter>
</defs>
</svg>
